PathFileType	4	(X/Y/Z)	C:/Users/opensim2020/Desktop/walking_exp_matlab/subject01_walking13_straight_04.trc	
DataRate	CameraRate	NumFrames	NumMarkers	Units	OrigDataRate	OrigDataStartFrame	OrigNumFrames	
100.00	100.00	5	42	mm	100.00	2176	135	
Frame#	Time	LFHD			RFHD			LBHD			RBHD			C7			T10			CLAV			STRN			RBAK			LSHO			LUPA			LELB			LFRM			LWRA			LWRB			LFIN			RSHO			RUPA			RELB			RFRM			RWRA			RWRB			RFIN			LASI			RASI			LPSI			RPSI			LTHI			LKNE			LTIB			LANK			LHEE			LTOE			RTHI			RKNE			RTIB			RANK			RHEE			RTOE			*39			*40			*41			
		X1	Y1	Z1	X2	Y2	Z2	X3	Y3	Z3	X4	Y4	Z4	X5	Y5	Z5	X6	Y6	Z6	X7	Y7	Z7	X8	Y8	Z8	X9	Y9	Z9	X10	Y10	Z10	X11	Y11	Z11	X12	Y12	Z12	X13	Y13	Z13	X14	Y14	Z14	X15	Y15	Z15	X16	Y16	Z16	X17	Y17	Z17	X18	Y18	Z18	X19	Y19	Z19	X20	Y20	Z20	X21	Y21	Z21	X22	Y22	Z22	X23	Y23	Z23	X24	Y24	Z24	X25	Y25	Z25	X26	Y26	Z26	X27	Y27	Z27	X28	Y28	Z28	X29	Y29	Z29	X30	Y30	Z30	X31	Y31	Z31	X32	Y32	Z32	X33	Y33	Z33	X34	Y34	Z34	X35	Y35	Z35	X36	Y36	Z36	X37	Y37	Z37	X38	Y38	Z38	X39	Y39	Z39	X40	Y40	Z40	X41	Y41	Z41	X42	Y42	Z42	

68	0.670	1509.69446	111.68340	1654.97827	1397.36084	96.66443	1658.57434	1500.88110	229.31033	1614.94128	1380.96008	216.39272	1617.33167	1459.26416	273.39752	1418.18921	1454.92578	304.72516	1122.76111	1456.49487	126.85545	1353.05676	1468.84973	80.29990	1201.31299	1387.95862	325.48077	1219.23132	1617.14050	189.06465	1385.14722	1717.86487	209.70544	1213.80383	1751.30969	199.81490	1064.84717	1764.36914	92.58537	1011.14661	1730.81079	-39.84151	990.42096	1759.21509	-10.43555	947.15100	1767.96997	-92.08492	940.31976	1304.66968	194.77252	1375.22681	1215.35522	285.84616	1186.41858	1211.56311	310.37170	1065.90161	1179.92834	316.68256	947.17706	1193.02148	269.03662	813.77155	1159.29688	315.48117	825.55048	1148.52478	293.05490	746.64441	1576.74963	132.62877	916.58673	1363.78931	106.22534	926.05078	1503.63403	311.60864	935.03473	1358.52063	290.81863	937.61041	1638.38513	226.75826	587.62360	1633.38281	267.88177	457.56461	1633.83264	422.15091	348.55804	1583.79236	580.97064	197.48441	1527.83972	612.20050	225.01868	1562.57214	564.48529	48.89285	1306.34058	78.59696	601.76770	1342.63757	32.74987	452.39175	1331.33777	62.78426	277.17923	1380.60217	74.34761	74.00676	1425.14551	127.63794	36.05335	1394.12183	-64.94963	36.43654	1419.27136	107.46278	1692.50671	-3101.86890	1973.06982	1023.44495	-3140.59961	2012.59644	1022.05664 
69	0.680	1507.20178	97.65642	1656.34680	1394.82556	82.86812	1659.31775	1498.97778	215.31715	1616.23730	1378.88171	202.56677	1617.92944	1457.93469	259.48843	1419.45740	1454.12756	291.23849	1124.04199	1455.55859	113.01607	1354.19104	1468.10547	66.34581	1202.51306	1386.56433	311.55920	1220.48193	1616.11755	175.69348	1386.51453	1716.77539	197.96933	1215.16626	1749.37878	190.68364	1065.86340	1762.81702	84.86037	1009.31073	1729.79211	-47.22219	985.16797	1757.83801	-16.43067	942.57697	1766.77466	-97.80861	933.17743	1303.50562	180.45081	1376.38477	1214.24561	270.41702	1186.91711	1210.95667	293.98804	1066.09375	1179.96643	298.61426	946.75037	1194.23059	249.12613	814.24719	1160.10168	295.45126	825.19031	1149.94031	271.80542	746.72882	1575.62439	118.56547	917.94727	1362.54639	93.06732	927.31989	1503.30273	297.61563	935.34198	1358.12585	277.42822	938.96698	1638.60950	205.83362	586.21753	1634.54785	242.08409	455.51382	1636.12561	397.34439	349.27063	1584.55811	560.13715	205.38440	1529.29834	589.78217	234.80717	1563.77319	552.15540	55.76445	1305.74426	69.67532	601.82751	1341.47302	25.50527	451.62241	1331.41541	58.21385	276.81439	1380.67102	74.00725	74.09313	1425.01953	127.41068	36.40759	1394.24243	-65.42441	35.89072	1416.49927	94.00694	1693.30164	-3102.04810	1973.02283	1023.95789	-3140.70874	2012.59839	1022.17780 
70	0.690	1504.89087	83.51178	1657.82532	1392.37378	69.09418	1659.97815	1497.13330	201.13963	1617.62476	1377.07776	188.79050	1618.62793	1456.70178	245.45616	1421.01526	1453.23181	277.78586	1125.44238	1454.77869	99.39696	1355.36768	1467.49548	52.84412	1203.65588	1384.82471	297.81863	1221.94250	1615.23743	162.43216	1387.90295	1715.96729	186.35826	1216.59302	1747.43152	181.85437	1066.89758	1761.18384	77.57976	1007.17401	1728.81702	-54.10501	979.59729	1756.42090	-21.83826	937.75940	1765.59644	-102.89610	925.73883	1302.64026	166.23288	1377.56177	1213.01135	255.06459	1187.67102	1210.29443	277.73624	1066.36987	1180.00537	280.52469	946.44958	1195.55469	228.86925	814.93359	1161.00525	275.11414	824.98853	1151.56140	249.86658	746.86078	1574.92578	105.03497	919.25659	1361.44189	80.13431	928.46906	1502.93054	283.97549	935.56323	1357.69336	264.60229	940.01843	1638.61133	182.79750	585.56787	1635.37683	215.92244	453.89944	1638.21741	372.22281	350.08545	1584.34729	538.72260	212.64923	1528.54895	566.81677	242.74577	1565.79297	537.14038	61.76532	1305.17261	62.46881	601.55182	1340.55103	18.93800	451.11752	1331.08008	54.68929	276.81470	1380.75891	73.50718	74.19559	1425.01782	127.24404	36.79460	1394.44324	-65.86423	35.48265	1413.84888	80.21853	1694.10193	-3102.00977	1973.24768	1023.52258	-3140.74316	2012.58472	1022.09314 
71	0.700	1502.75500	69.30252	1659.22168	1390.16541	55.03161	1660.83325	1495.55835	186.99873	1619.17590	1375.43542	174.98581	1619.47009	1455.57324	231.53510	1422.56714	1452.29919	264.29565	1126.88599	1454.45374	85.75837	1356.85352	1466.99841	39.63428	1204.75732	1383.10803	284.24225	1223.64209	1614.61609	149.24216	1389.40076	1715.12061	175.10658	1218.10852	1745.23755	173.11549	1067.74805	1759.54626	70.74386	1004.86499	1727.87292	-60.51678	973.80835	1755.00684	-26.75946	932.83105	1764.36926	-107.39941	918.06207	1301.95886	151.93607	1378.73804	1211.69226	239.70879	1188.52588	1209.58447	261.65762	1066.68799	1180.02759	262.24365	946.28009	1196.92273	208.21237	815.85364	1161.83423	254.38617	824.85010	1153.09412	227.81009	747.16479	1574.40344	91.68420	920.70428	1360.46106	67.30773	929.64972	1502.58972	270.60913	935.73108	1357.35706	252.11531	940.97943	1638.78821	160.62065	585.24304	1636.10376	189.94904	452.97012	1639.92493	346.80502	350.89407	1583.27539	516.96283	219.34816	1526.02063	543.98492	248.82661	1568.69836	518.18127	68.35394	1304.65112	55.81269	601.20581	1339.84058	12.77419	450.48392	1330.48108	51.32116	276.69400	1380.89966	73.12741	74.17460	1425.09326	127.10563	37.01647	1394.58655	-66.12624	35.11332	1411.34131	66.11581	1695.00293	-3101.93994	1973.03906	1023.41132	-3140.76221	2012.43445	1022.01520 
72	0.710	1500.76697	55.00781	1660.63770	1388.09070	41.14141	1661.57239	1494.09155	172.79523	1620.74500	1373.93542	161.08733	1620.38306	1454.72119	217.85707	1424.18274	1451.34448	250.98117	1128.31958	1453.90930	72.14863	1357.98950	1466.64417	26.25167	1205.93848	1381.51770	270.75879	1225.34119	1613.98743	136.11005	1390.80762	1714.23218	164.12349	1219.67920	1743.13489	164.69774	1068.69666	1757.92725	64.26281	1002.51001	1726.90906	-66.44698	967.81500	1753.58069	-31.18902	927.74463	1763.26819	-111.31409	910.38434	1301.31775	137.77086	1380.06982	1210.30249	224.27451	1189.48596	1208.98596	245.67169	1066.97546	1179.93896	243.81709	946.19916	1198.19543	187.24232	817.07745	1162.78613	233.35016	824.81915	1154.80371	204.91725	747.82367	1574.02893	78.53606	922.14978	1359.51672	54.61108	930.77484	1502.33472	257.50125	935.97357	1357.09741	239.69496	941.88934	1639.02258	138.24031	585.57526	1636.67993	164.26428	452.86996	1641.15967	321.24042	351.87738	1581.32043	494.17313	225.31561	1522.88635	520.77417	253.43176	1571.99268	495.41016	74.02086	1304.32153	49.32181	600.84009	1339.13745	7.28597	449.64899	1329.94873	48.40857	276.41888	1381.03943	72.62812	74.49105	1425.30566	126.95647	37.27687	1394.64722	-66.47495	34.84670	1409.15845	51.75852	1696.09155	-3101.88916	1973.10840	1023.74463	-3140.71362	2012.55969	1021.99414 
